<svg xmlns="http://www.w3.org/2000/svg" version="1.1" xmlnsXlink="http://www.w3.org/1999/xlink" xmlnsSvgjs="http://svgjs.dev/svgjs" width="128" height="128" viewBox="0 0 128 128"><g transform="matrix(0.8046875,0,0,0.8046875,12.760752631578946,42.57310160447793)"><svg viewBox="0 0 95 40" data-background-color="#191a1b" preserveAspectRatio="xMidYMid meet" height="53" width="128" xmlns="http://www.w3.org/2000/svg" xmlnsXlink="http://www.w3.org/1999/xlink"><g id="tight-bounds" transform="matrix(1,0,0,1,-0.24049999999999727,0.09630331289119454)"><svg viewBox="0 0 95.481 39.80739337421761" height="39.80739337421761" width="95.481"><g><svg viewBox="0 0 95.481 39.80739337421761" height="39.80739337421761" width="95.481"><g><svg viewBox="0 0 95.481 39.80739337421761" height="39.80739337421761" width="95.481"><g><svg viewBox="0 0 95.481 39.80739337421761" height="39.80739337421761" width="95.481"><g><svg viewBox="0 0 95.481 39.80739337421761" height="39.80739337421761" width="95.481"><g><svg viewBox="0 0 95.481 39.80739337421761" height="39.80739337421761" width="95.481"><g><svg xmlns="http://www.w3.org/2000/svg" xmlnsXlink="http://www.w3.org/1999/xlink" version="1.1" x="0" y="0" viewBox="2.474 31.334000000000003 94.902 39.566" enable-background="new 0 0 100 100" xml:space="preserve" height="39.80739337421761" width="95.481" class="icon-icon-0" data-fill-palette-color="accent" id="icon-0"><g fill="#d68b49" data-fill-palette-color="accent"><path d="M92.292 35.549H76.211v-0.821c0-1.871-1.522-3.394-3.395-3.394H27.033c-1.872 0-3.395 1.522-3.395 3.394v0.821H7.558c-2.804 0-5.084 2.281-5.084 5.083v25.184c0 2.802 2.28 5.084 5.084 5.084h84.734c2.803 0 5.084-2.282 5.084-5.084V40.632C97.376 37.83 95.095 35.549 92.292 35.549zM94.562 65.815c0 1.251-1.019 2.27-2.27 2.27H7.558c-1.252 0-2.271-1.019-2.271-2.27V40.632c0-1.251 1.019-2.27 2.271-2.27h17.488c0.776 0 1.406-0.629 1.406-1.406v-2.229c0-0.319 0.261-0.58 0.581-0.58h45.783c0.32 0 0.58 0.261 0.58 0.58v2.229c0 0.777 0.631 1.406 1.407 1.406h17.488c1.251 0 2.27 1.019 2.27 2.27V65.815z" fill="#d68b49" data-fill-palette-color="accent"></path><path d="M89.97 63.221H74.728c-0.776 0-1.407 0.631-1.407 1.406 0 0.777 0.631 1.408 1.407 1.408H89.97c0.776 0 1.407-0.631 1.407-1.408C91.377 63.852 90.746 63.221 89.97 63.221z" fill="#d68b49" data-fill-palette-color="accent"></path><path d="M70.279 63.221H59.903c-0.777 0-1.407 0.631-1.407 1.406 0 0.777 0.63 1.408 1.407 1.408h10.376c0.776 0 1.407-0.631 1.407-1.408C71.687 63.852 71.056 63.221 70.279 63.221z" fill="#d68b49" data-fill-palette-color="accent"></path><path d="M56.206 63.221H28.255c-0.776 0-1.406 0.631-1.406 1.406 0 0.777 0.63 1.408 1.406 1.408h27.951c0.776 0 1.407-0.631 1.407-1.408C57.613 63.852 56.982 63.221 56.206 63.221z" fill="#d68b49" data-fill-palette-color="accent"></path><path d="M24.234 63.221H9.879c-0.777 0-1.406 0.631-1.406 1.406 0 0.777 0.629 1.408 1.406 1.408h14.355c0.777 0 1.407-0.631 1.407-1.408C25.642 63.852 25.012 63.221 24.234 63.221z" fill="#d68b49" data-fill-palette-color="accent"></path><path d="M89.97 57.709H74.728c-0.776 0-1.407 0.629-1.407 1.405 0 0.778 0.631 1.409 1.407 1.409H89.97c0.776 0 1.407-0.631 1.407-1.409C91.377 58.338 90.746 57.709 89.97 57.709z" fill="#d68b49" data-fill-palette-color="accent"></path><path d="M70.297 57.709h-6.153c-0.776 0-1.407 0.629-1.407 1.405 0 0.778 0.631 1.409 1.407 1.409h6.153c0.776 0 1.407-0.631 1.407-1.409C71.704 58.338 71.073 57.709 70.297 57.709z" fill="#d68b49" data-fill-palette-color="accent"></path><path d="M17.699 57.709c-0.777 0-1.406 0.629-1.406 1.405 0 0.778 0.629 1.409 1.406 1.409h42.224c0.776 0 1.407-0.631 1.407-1.409 0-0.776-0.631-1.405-1.407-1.405H17.699z" fill="#d68b49" data-fill-palette-color="accent"></path><path d="M9.879 60.523h3.967c0.777 0 1.407-0.631 1.407-1.409 0-0.776-0.63-1.405-1.407-1.405H9.879c-0.777 0-1.406 0.629-1.406 1.405C8.473 59.893 9.102 60.523 9.879 60.523z" fill="#d68b49" data-fill-palette-color="accent"></path><path d="M89.97 52.196H74.728c-0.776 0-1.407 0.63-1.407 1.406 0 0.777 0.631 1.407 1.407 1.407H89.97c0.776 0 1.407-0.63 1.407-1.407C91.377 52.826 90.746 52.196 89.97 52.196z" fill="#d68b49" data-fill-palette-color="accent"></path><path d="M70.297 46.685h-4.759c-0.776 0-1.407 0.629-1.407 1.405 0 0.778 0.631 1.407 1.407 1.407h3.352v3.847c0 0.778 0.631 1.407 1.407 1.407s1.407-0.629 1.407-1.407V48.09C71.704 47.313 71.073 46.685 70.297 46.685z" fill="#d68b49" data-fill-palette-color="accent"></path><path d="M66.863 53.603c0-0.776-0.631-1.406-1.407-1.406H20.04c-0.777 0-1.407 0.63-1.407 1.406 0 0.777 0.63 1.407 1.407 1.407h45.416C66.232 55.01 66.863 54.38 66.863 53.603z" fill="#d68b49" data-fill-palette-color="accent"></path><path d="M9.879 55.01h6.02c0.776 0 1.406-0.63 1.406-1.407 0-0.776-0.63-1.406-1.406-1.406h-6.02c-0.777 0-1.406 0.63-1.406 1.406C8.473 54.38 9.102 55.01 9.879 55.01z" fill="#d68b49" data-fill-palette-color="accent"></path><path d="M89.97 46.685H74.728c-0.776 0-1.407 0.629-1.407 1.405 0 0.778 0.631 1.407 1.407 1.407H89.97c0.776 0 1.407-0.629 1.407-1.407C91.377 47.313 90.746 46.685 89.97 46.685z" fill="#d68b49" data-fill-palette-color="accent"></path><path d="M9.879 49.497h51.639c0.776 0 1.407-0.629 1.407-1.407 0-0.776-0.631-1.405-1.407-1.405H9.879c-0.777 0-1.406 0.629-1.406 1.405C8.473 48.868 9.102 49.497 9.879 49.497z" fill="#d68b49" data-fill-palette-color="accent"></path><path d="M89.97 41.172H74.728c-0.776 0-1.407 0.63-1.407 1.406 0 0.777 0.631 1.407 1.407 1.407H89.97c0.776 0 1.407-0.63 1.407-1.407C91.377 41.802 90.746 41.172 89.97 41.172z" fill="#d68b49" data-fill-palette-color="accent"></path><path d="M70.297 41.172h-9.518c-0.776 0-1.407 0.63-1.407 1.406 0 0.777 0.631 1.407 1.407 1.407h9.518c0.776 0 1.407-0.63 1.407-1.407C71.704 41.802 71.073 41.172 70.297 41.172z" fill="#d68b49" data-fill-palette-color="accent"></path><path d="M43.385 43.985h12.964c0.776 0 1.407-0.63 1.407-1.407 0-0.776-0.631-1.406-1.407-1.406H43.385c-0.776 0-1.407 0.63-1.407 1.406C41.978 43.355 42.608 43.985 43.385 43.985z" fill="#d68b49" data-fill-palette-color="accent"></path><path d="M23.773 43.985h15.181c0.776 0 1.407-0.63 1.407-1.407 0-0.776-0.631-1.406-1.407-1.406H23.773c-0.776 0-1.406 0.63-1.406 1.406C22.367 43.355 22.997 43.985 23.773 43.985z" fill="#d68b49" data-fill-palette-color="accent"></path><path d="M9.879 43.985h9.957c0.777 0 1.406-0.63 1.406-1.407 0-0.776-0.629-1.406-1.406-1.406H9.879c-0.777 0-1.406 0.63-1.406 1.406C8.473 43.355 9.102 43.985 9.879 43.985z" fill="#d68b49" data-fill-palette-color="accent"></path></g></svg></g></svg></g></svg></g></svg></g></svg></g></svg></g><defs></defs></svg><rect width="95.481" height="39.80739337421761" fill="none" stroke="none" visibility="hidden"></rect></g></svg></g></svg>