<svg xmlns="http://www.w3.org/2000/svg" version="1.1" xmlnsXlink="http://www.w3.org/1999/xlink" xmlnsSvgjs="http://svgjs.dev/svgjs" width="1000" height="1000" viewBox="0 0 1000 1000"><rect width="1000" height="1000" fill="#ffffff"></rect><g transform="matrix(0.7,0,0,0.7,149.57575757575756,440.1741528948088)"><svg viewBox="0 0 396 68" data-background-color="#191a1b" preserveAspectRatio="xMidYMid meet" height="171" width="1000" xmlns="http://www.w3.org/2000/svg" xmlnsXlink="http://www.w3.org/1999/xlink"><g id="tight-bounds" transform="matrix(1,0,0,1,0.2400000000000091,-0.013720942748506104)"><svg viewBox="0 0 395.52 68.02744188549703" height="68.02744188549703" width="395.52"><g><svg viewBox="0 0 669.6840702211938 115.18227692307688" height="68.02744188549703" width="395.52"><g><rect width="4.768218011963076" height="115.18227692307688" x="256.9136061046153" y="0" fill="#000000" opacity="1" stroke-width="0" stroke="transparent" fill-opacity="1" class="rect-o-0" data-fill-palette-color="primary" rx="1%" id="o-0" data-palette-color="#48494b"></rect></g><g transform="matrix(1,0,0,1,274.1640702211938,0.2865230769230678)"><svg viewBox="0 0 395.52 114.60923076923075" height="114.60923076923075" width="395.52"><g><svg viewBox="0 0 395.52 114.60923076923075" height="114.60923076923075" width="395.52"><g><svg viewBox="0 0 395.52 114.60923076923075" height="114.60923076923075" width="395.52"><g transform="matrix(1,0,0,1,0,0)"><svg width="395.52" viewBox="3.300001859664917 -35.150001525878906 267.8000183105469 74.60000610351562" height="114.60923076923075" data-palette-color="#48494b"><svg></svg><svg></svg><g class="undefined-text-0" data-fill-palette-color="primary" id="text-0"><path xmlns="http://www.w3.org/2000/svg" d="M23.45-34.5h3.65l-10.6 14.65c-0.267 0.367-0.523 0.69-0.77 0.97-0.253 0.287-0.53 0.58-0.83 0.88v0 0.1c0.333 0.3 0.65 0.607 0.95 0.92 0.3 0.32 0.567 0.663 0.8 1.03v0l11.2 15.95h-3.75l-12.65-18.05zM4.65-34.5h3.2v11.15c0 0.967-0.033 1.857-0.1 2.67-0.067 0.82-0.167 1.697-0.3 2.63v0c0.1 0.933 0.193 1.833 0.28 2.7 0.08 0.867 0.12 1.733 0.12 2.6v0 12.75h-3.2zM6.6-19.3h6.85v2.65h-6.85zM39.25-34.55v0c1.633 0 3.283 0 4.95 0 1.667 0 3.323 0.023 4.97 0.07 1.653 0.053 3.263 0.13 4.83 0.23v0l-0.15 2.55h-14.05c-1.1 0-1.943 0.3-2.53 0.9-0.58 0.6-0.87 1.483-0.87 2.65v0 21.8c0 1.167 0.29 2.057 0.87 2.67 0.587 0.62 1.43 0.93 2.53 0.93v0h14.05l0.15 2.5c-1.567 0.1-3.177 0.167-4.83 0.2-1.647 0.033-3.303 0.06-4.97 0.08-1.667 0.013-3.317 0.02-4.95 0.02v0c-1.833 0-3.307-0.527-4.42-1.58-1.12-1.047-1.68-2.42-1.68-4.12v0-23.2c0-1.733 0.56-3.117 1.68-4.15 1.113-1.033 2.587-1.55 4.42-1.55zM34-17v-2.65h17.85v2.65zM80.3-34.5h3.5l-11.75 22.5h-2.85l-11.8-22.5h3.5l7.9 15.3c0.3 0.6 0.583 1.217 0.85 1.85 0.267 0.633 0.533 1.25 0.8 1.85v0h0.35c0.233-0.6 0.5-1.217 0.8-1.85 0.3-0.633 0.583-1.233 0.85-1.8v0zM68.95-14.55h3.3v14.55h-3.3zM99.9-34.9v0c2.8 0 5.027 0.257 6.68 0.77 1.647 0.52 2.837 1.43 3.57 2.73 0.733 1.3 1.1 3.133 1.1 5.5v0c0 2.467-0.457 4.35-1.37 5.65-0.92 1.3-2.413 2.05-4.48 2.25v0 0.2c2.567 0.233 4.36 1.133 5.38 2.7 1.013 1.567 1.52 3.733 1.52 6.5v0c0 2.367-0.357 4.2-1.07 5.5-0.72 1.3-1.88 2.207-3.48 2.72-1.6 0.52-3.7 0.78-6.3 0.78v0c-1.9 0-3.523-0.007-4.87-0.02-1.353-0.02-2.597-0.063-3.73-0.13-1.133-0.067-2.333-0.15-3.6-0.25v0l0.7-2.6c0.7 0.033 2.05 0.067 4.05 0.1 2 0.033 4.333 0.05 7 0.05v0c2 0 3.577-0.177 4.73-0.53 1.147-0.347 1.97-0.997 2.47-1.95 0.5-0.947 0.75-2.337 0.75-4.17v0c0-1.967-0.257-3.483-0.77-4.55-0.52-1.067-1.387-1.817-2.6-2.25-1.22-0.433-2.88-0.667-4.98-0.7v0h-10.7v-2.55h10.7c1.833-0.033 3.293-0.227 4.38-0.58 1.08-0.347 1.863-0.987 2.35-1.92 0.48-0.933 0.72-2.25 0.72-3.95v0c0-1.767-0.257-3.117-0.77-4.05-0.52-0.933-1.387-1.567-2.6-1.9-1.22-0.333-2.863-0.5-4.93-0.5v0c-1.567 0-2.983 0-4.25 0-1.267 0-2.367 0.01-3.3 0.03-0.933 0.013-1.683 0.053-2.25 0.12v0l-0.7-2.6c1.1-0.133 2.15-0.223 3.15-0.27 1-0.053 2.093-0.09 3.28-0.11 1.18-0.013 2.587-0.02 4.22-0.02zM89.25-34.5h3.2v34.5h-3.2zM132.1-35.15v0c2.467 0 4.55 0.307 6.25 0.92 1.7 0.62 3.067 1.62 4.1 3 1.033 1.387 1.783 3.23 2.25 5.53 0.467 2.3 0.7 5.117 0.7 8.45v0c0 3.333-0.233 6.15-0.7 8.45-0.467 2.3-1.217 4.14-2.25 5.52-1.033 1.387-2.4 2.387-4.1 3-1.7 0.62-3.783 0.93-6.25 0.93v0c-2.467 0-4.55-0.31-6.25-0.93-1.7-0.613-3.067-1.613-4.1-3-1.033-1.38-1.79-3.22-2.27-5.52-0.487-2.3-0.73-5.117-0.73-8.45v0c0-3.333 0.243-6.15 0.73-8.45 0.48-2.3 1.237-4.143 2.27-5.53 1.033-1.38 2.4-2.38 4.1-3 1.7-0.613 3.783-0.92 6.25-0.92zM132.1-32.2v0c-2.467 0-4.423 0.473-5.87 1.42-1.453 0.953-2.48 2.513-3.08 4.68-0.6 2.167-0.9 5.117-0.9 8.85v0c0 3.733 0.3 6.683 0.9 8.85 0.6 2.167 1.627 3.723 3.08 4.67 1.447 0.953 3.403 1.43 5.87 1.43v0c2.467 0 4.417-0.477 5.85-1.43 1.433-0.947 2.46-2.503 3.08-4.67 0.613-2.167 0.92-5.117 0.92-8.85v0c0-3.733-0.307-6.683-0.92-8.85-0.62-2.167-1.647-3.727-3.08-4.68-1.433-0.947-3.383-1.42-5.85-1.42zM162.1-34.5h3.75c0.3 0 0.577 0.083 0.83 0.25 0.247 0.167 0.403 0.4 0.47 0.7v0l11.55 33.55h-3.4l-9.7-29.1c-0.133-0.467-0.283-0.943-0.45-1.43-0.167-0.48-0.317-0.937-0.45-1.37v0h-1.45c-0.133 0.433-0.273 0.89-0.42 1.37-0.153 0.487-0.313 0.963-0.48 1.43v0l-9.7 29.1h-3.4l11.55-33.55c0.1-0.3 0.267-0.533 0.5-0.7 0.233-0.167 0.5-0.25 0.8-0.25zM155.2-14.3h17.5v2.85h-17.5zM195.6-34.95v0c2.567 0 4.633 0.29 6.2 0.87 1.567 0.587 2.71 1.587 3.43 3 0.713 1.42 1.07 3.43 1.07 6.03v0c0 1.933-0.217 3.523-0.65 4.77-0.433 1.253-1.117 2.213-2.05 2.88-0.933 0.667-2.15 1.117-3.65 1.35v0 0.2c0.567 0.167 1.117 0.467 1.65 0.9 0.533 0.433 1.017 0.983 1.45 1.65 0.433 0.667 0.767 1.45 1 2.35v0l3.5 10.95h-3.5l-3.3-10.85c-0.467-1.433-1.107-2.45-1.92-3.05-0.82-0.6-1.847-0.9-3.08-0.9v0c-1.967 0-3.707-0.01-5.22-0.03-1.52-0.013-2.78-0.037-3.78-0.07-1-0.033-1.75-0.067-2.25-0.1v0l0.15-2.65h10.85c1.867-0.033 3.343-0.257 4.43-0.67 1.08-0.42 1.853-1.157 2.32-2.21 0.467-1.047 0.7-2.503 0.7-4.37v0c0-1.9-0.233-3.367-0.7-4.4-0.467-1.033-1.24-1.75-2.32-2.15-1.087-0.4-2.563-0.6-4.43-0.6v0c-2.667 0-4.967 0.01-6.9 0.03-1.933 0.013-3.233 0.037-3.9 0.07v0l-0.7-2.55c1.233-0.133 2.383-0.233 3.45-0.3 1.067-0.067 2.243-0.11 3.53-0.13 1.28-0.013 2.82-0.02 4.62-0.02zM184-34.5h3.25v34.5h-3.25zM226.7-34.95v0c2.4 0 4.433 0.31 6.1 0.93 1.667 0.613 3.017 1.603 4.05 2.97 1.033 1.367 1.783 3.183 2.25 5.45 0.467 2.267 0.7 5.05 0.7 8.35v0c0 3.3-0.233 6.083-0.7 8.35-0.467 2.267-1.217 4.083-2.25 5.45-1.033 1.367-2.383 2.357-4.05 2.97-1.667 0.62-3.7 0.93-6.1 0.93v0c-2.333 0-4.483-0.04-6.45-0.12-1.967-0.087-3.817-0.197-5.55-0.33v0l1.45-2.6c1.467 0.033 3.06 0.067 4.78 0.1 1.713 0.033 3.637 0.05 5.77 0.05v0c2.4 0 4.31-0.46 5.73-1.38 1.413-0.913 2.43-2.453 3.05-4.62 0.613-2.167 0.92-5.1 0.92-8.8v0c0-3.7-0.307-6.633-0.92-8.8-0.62-2.167-1.637-3.717-3.05-4.65-1.42-0.933-3.33-1.4-5.73-1.4v0c-2.1 0-4 0.017-5.7 0.05-1.7 0.033-3.333 0.083-4.9 0.15v0l-1.4-2.6c1.733-0.133 3.593-0.243 5.58-0.33 1.98-0.08 4.12-0.12 6.42-0.12zM214.7-34.5h3.25v34.5h-3.25z" fill="#000000" fill-rule="nonzero" stroke="none" stroke-width="1" stroke-linecap="butt" stroke-linejoin="miter" stroke-miterlimit="10" stroke-dasharray="" stroke-dashoffset="0" font-family="none" font-weight="none" font-size="none" text-anchor="none" style="mix-blend-mode: normal" data-fill-palette-color="primary" opacity="1"></path><path xmlns="http://www.w3.org/2000/svg" d="M16.6 3.7v0c1.4 0 2.61 0.033 3.63 0.1 1.013 0.067 1.953 0.167 2.82 0.3 0.867 0.133 1.767 0.317 2.7 0.55v0l-0.4 2.5c-1-0.133-1.907-0.233-2.72-0.3-0.82-0.067-1.703-0.127-2.65-0.18-0.953-0.047-2.08-0.07-3.38-0.07v0c-2.467 0-4.417 0.473-5.85 1.42-1.433 0.953-2.45 2.513-3.05 4.68-0.6 2.167-0.9 5.117-0.9 8.85v0c0 3.733 0.3 6.683 0.9 8.85 0.6 2.167 1.617 3.723 3.05 4.67 1.433 0.953 3.383 1.43 5.85 1.43v0c2.067 0 3.817-0.05 5.25-0.15 1.433-0.1 2.833-0.25 4.2-0.45v0l0.4 2.45c-1.4 0.367-2.84 0.633-4.32 0.8-1.487 0.167-3.33 0.25-5.53 0.25v0c-3.233 0-5.823-0.577-7.77-1.73-1.953-1.147-3.363-3.02-4.23-5.62-0.867-2.6-1.3-6.1-1.3-10.5v0c0-4.4 0.433-7.9 1.3-10.5 0.867-2.6 2.277-4.477 4.23-5.63 1.947-1.147 4.537-1.72 7.77-1.72zM33 4.3h3.25v34.5h-3.25zM35.85 18.9h18.35v2.85h-18.35zM53.65 4.3h3.25v34.5h-3.25zM75.05 4.3h3.75c0.3 0 0.577 0.083 0.83 0.25 0.247 0.167 0.403 0.4 0.47 0.7v0l11.55 33.55h-3.4l-9.7-29.1c-0.133-0.467-0.283-0.943-0.45-1.43-0.167-0.48-0.317-0.937-0.45-1.37v0h-1.45c-0.133 0.433-0.273 0.89-0.42 1.37-0.153 0.487-0.313 0.963-0.48 1.43v0l-9.7 29.1h-3.4l11.55-33.55c0.1-0.3 0.267-0.533 0.5-0.7 0.233-0.167 0.5-0.25 0.8-0.25zM68.15 24.5h17.5v2.85h-17.5zM125 4.3h3.95c0.933 0 1.4 0.483 1.4 1.45v0l1.5 33.05h-3.3l-1.35-31.75h-1.1l-9 27.05c-0.2 0.733-0.683 1.1-1.45 1.1v0h-3.3c-0.767 0-1.267-0.367-1.5-1.1v0l-8.95-27.05h-1.1l-1.3 31.75h-3.3l1.4-33.05c0.067-0.967 0.567-1.45 1.5-1.45v0h3.95c0.733 0 1.2 0.383 1.4 1.15v0l7.55 22.5c0.3 0.767 0.56 1.54 0.78 2.32 0.213 0.787 0.453 1.58 0.72 2.38v0h1.05c0.233-0.8 0.467-1.593 0.7-2.38 0.233-0.78 0.483-1.587 0.75-2.42v0l7.55-22.4c0.2-0.767 0.683-1.15 1.45-1.15zM151.95 3.85v0c2.633 0 4.733 0.317 6.3 0.95 1.567 0.633 2.693 1.707 3.38 3.22 0.68 1.52 1.02 3.663 1.02 6.43v0c0 2.767-0.333 4.917-1 6.45-0.667 1.533-1.757 2.6-3.27 3.2-1.52 0.6-3.563 0.9-6.13 0.9v0c-1.367 0-2.667-0.027-3.9-0.08-1.233-0.047-2.36-0.113-3.38-0.2-1.013-0.08-1.877-0.17-2.59-0.27-0.72-0.1-1.213-0.183-1.48-0.25v0l0.15-2.05c1.7 0 3.483 0 5.35 0 1.867 0 3.7 0 5.5 0v0c1.833-0.033 3.293-0.267 4.38-0.7 1.08-0.433 1.853-1.21 2.32-2.33 0.467-1.113 0.7-2.67 0.7-4.67v0c0-2.067-0.233-3.65-0.7-4.75-0.467-1.1-1.24-1.867-2.32-2.3-1.087-0.433-2.547-0.65-4.38-0.65v0c-2.667 0-4.967 0.01-6.9 0.03-1.933 0.013-3.233 0.053-3.9 0.12v0l-0.7-2.6c1.233-0.133 2.383-0.233 3.45-0.3 1.067-0.067 2.233-0.11 3.5-0.13 1.267-0.013 2.8-0.02 4.6-0.02zM140.4 4.3h3.25v34.5h-3.25zM169.75 4.3h3.25v34.5h-3.25zM194.3 3.65v0c2.467 0 4.55 0.307 6.25 0.92 1.7 0.62 3.067 1.62 4.1 3 1.033 1.387 1.783 3.23 2.25 5.53 0.467 2.3 0.7 5.117 0.7 8.45v0c0 3.333-0.233 6.15-0.7 8.45-0.467 2.3-1.217 4.14-2.25 5.52-1.033 1.387-2.4 2.387-4.1 3-1.7 0.62-3.783 0.93-6.25 0.93v0c-2.467 0-4.55-0.31-6.25-0.93-1.7-0.613-3.067-1.613-4.1-3-1.033-1.38-1.79-3.22-2.27-5.52-0.487-2.3-0.73-5.117-0.73-8.45v0c0-3.333 0.243-6.15 0.73-8.45 0.48-2.3 1.237-4.143 2.27-5.53 1.033-1.38 2.4-2.38 4.1-3 1.7-0.613 3.783-0.92 6.25-0.92zM194.3 6.6v0c-2.467 0-4.423 0.473-5.87 1.42-1.453 0.953-2.48 2.513-3.08 4.68-0.6 2.167-0.9 5.117-0.9 8.85v0c0 3.733 0.3 6.683 0.9 8.85 0.6 2.167 1.627 3.723 3.08 4.67 1.447 0.953 3.403 1.43 5.87 1.43v0c2.467 0 4.417-0.477 5.85-1.43 1.433-0.947 2.46-2.503 3.08-4.67 0.613-2.167 0.92-5.117 0.92-8.85v0c0-3.733-0.307-6.683-0.92-8.85-0.62-2.167-1.647-3.727-3.08-4.68-1.433-0.947-3.383-1.42-5.85-1.42zM238 4.3h3.25v33.1c0 0.933-0.45 1.4-1.35 1.4v0h-3.5c-0.4 0-0.723-0.093-0.97-0.28-0.253-0.18-0.463-0.453-0.63-0.82v0l-13.2-26.2c-0.3-0.633-0.633-1.327-1-2.08-0.367-0.747-0.667-1.437-0.9-2.07v0h-0.95c0.033 0.667 0.06 1.35 0.08 2.05 0.013 0.7 0.02 1.4 0.02 2.1v0 27.3h-3.25v-33.1c0-0.933 0.467-1.4 1.4-1.4v0h3.35c0.4 0 0.727 0.09 0.98 0.27 0.247 0.187 0.453 0.463 0.62 0.83v0l12.8 25.6c0.367 0.7 0.75 1.45 1.15 2.25 0.4 0.8 0.783 1.6 1.15 2.4v0h1.05c0-0.833-0.017-1.667-0.05-2.5-0.033-0.833-0.05-1.65-0.05-2.45v0zM259.75 3.7v0c1.633 0.033 3.283 0.117 4.95 0.25 1.667 0.133 3.333 0.35 5 0.65v0l-0.25 2.4c-1.467-0.1-3.033-0.183-4.7-0.25-1.667-0.067-3.283-0.1-4.85-0.1v0c-1.367 0-2.54 0.05-3.52 0.15-0.987 0.1-1.797 0.333-2.43 0.7-0.633 0.367-1.09 0.967-1.37 1.8-0.287 0.833-0.43 2-0.43 3.5v0c0 2.133 0.367 3.64 1.1 4.52 0.733 0.887 1.95 1.497 3.65 1.83v0l7.25 1.5c2.6 0.533 4.41 1.55 5.43 3.05 1.013 1.5 1.52 3.633 1.52 6.4v0c0 2.033-0.233 3.657-0.7 4.87-0.467 1.22-1.157 2.147-2.07 2.78-0.92 0.633-2.08 1.067-3.48 1.3-1.4 0.233-3.05 0.35-4.95 0.35v0c-1.2 0-2.683-0.05-4.45-0.15-1.767-0.1-3.783-0.333-6.05-0.7v0l0.25-2.4c1.7 0.067 3.127 0.123 4.28 0.17 1.147 0.053 2.187 0.087 3.12 0.1 0.933 0.02 1.917 0.03 2.95 0.03v0c1.933-0.033 3.467-0.2 4.6-0.5 1.133-0.3 1.943-0.9 2.43-1.8 0.48-0.9 0.72-2.267 0.72-4.1v0c0-1.5-0.157-2.677-0.47-3.53-0.32-0.847-0.837-1.497-1.55-1.95-0.72-0.447-1.647-0.77-2.78-0.97v0l-7.35-1.55c-2.467-0.5-4.207-1.51-5.22-3.03-1.02-1.513-1.53-3.603-1.53-6.27v0c0-2.033 0.227-3.66 0.68-4.88 0.447-1.213 1.113-2.12 2-2.72 0.88-0.6 2.003-0.993 3.37-1.18 1.367-0.18 2.983-0.27 4.85-0.27z" fill="#000000" fill-rule="nonzero" stroke="none" stroke-width="1" stroke-linecap="butt" stroke-linejoin="miter" stroke-miterlimit="10" stroke-dasharray="" stroke-dashoffset="0" font-family="none" font-weight="none" font-size="none" text-anchor="none" style="mix-blend-mode: normal" data-fill-palette-color="secondary" opacity="1"></path></g></svg></g></svg></g></svg></g></svg></g><g transform="matrix(1,0,0,1,0,6.63767273528002)"><svg viewBox="0 0 244.43135999999996 101.90693145251684" height="101.90693145251684" width="244.43135999999996"><g><svg xmlns="http://www.w3.org/2000/svg" xmlnsXlink="http://www.w3.org/1999/xlink" version="1.1" x="0" y="0" viewBox="2.4739999771118164 31.333999633789062 94.9020004272461 39.566001892089844" enable-background="new 0 0 100 100" xml:space="preserve" height="101.90693145251684" width="244.43135999999996" class="icon-icon-0" data-fill-palette-color="accent" id="icon-0"><g fill="#d68b49" data-fill-palette-color="accent"><path d="M92.292 35.549H76.211v-0.821c0-1.871-1.522-3.394-3.395-3.394H27.033c-1.872 0-3.395 1.522-3.395 3.394v0.821H7.558c-2.804 0-5.084 2.281-5.084 5.083v25.184c0 2.802 2.28 5.084 5.084 5.084h84.734c2.803 0 5.084-2.282 5.084-5.084V40.632C97.376 37.83 95.095 35.549 92.292 35.549zM94.562 65.815c0 1.251-1.019 2.27-2.27 2.27H7.558c-1.252 0-2.271-1.019-2.271-2.27V40.632c0-1.251 1.019-2.27 2.271-2.27h17.488c0.776 0 1.406-0.629 1.406-1.406v-2.229c0-0.319 0.261-0.58 0.581-0.58h45.783c0.32 0 0.58 0.261 0.58 0.58v2.229c0 0.777 0.631 1.406 1.407 1.406h17.488c1.251 0 2.27 1.019 2.27 2.27V65.815z" fill="#000000" data-fill-palette-color="accent"></path><path d="M89.97 63.221H74.728c-0.776 0-1.407 0.631-1.407 1.406 0 0.777 0.631 1.408 1.407 1.408H89.97c0.776 0 1.407-0.631 1.407-1.408C91.377 63.852 90.746 63.221 89.97 63.221z" fill="#000000" data-fill-palette-color="accent"></path><path d="M70.279 63.221H59.903c-0.777 0-1.407 0.631-1.407 1.406 0 0.777 0.63 1.408 1.407 1.408h10.376c0.776 0 1.407-0.631 1.407-1.408C71.687 63.852 71.056 63.221 70.279 63.221z" fill="#000000" data-fill-palette-color="accent"></path><path d="M56.206 63.221H28.255c-0.776 0-1.406 0.631-1.406 1.406 0 0.777 0.63 1.408 1.406 1.408h27.951c0.776 0 1.407-0.631 1.407-1.408C57.613 63.852 56.982 63.221 56.206 63.221z" fill="#000000" data-fill-palette-color="accent"></path><path d="M24.234 63.221H9.879c-0.777 0-1.406 0.631-1.406 1.406 0 0.777 0.629 1.408 1.406 1.408h14.355c0.777 0 1.407-0.631 1.407-1.408C25.642 63.852 25.012 63.221 24.234 63.221z" fill="#000000" data-fill-palette-color="accent"></path><path d="M89.97 57.709H74.728c-0.776 0-1.407 0.629-1.407 1.405 0 0.778 0.631 1.409 1.407 1.409H89.97c0.776 0 1.407-0.631 1.407-1.409C91.377 58.338 90.746 57.709 89.97 57.709z" fill="#000000" data-fill-palette-color="accent"></path><path d="M70.297 57.709h-6.153c-0.776 0-1.407 0.629-1.407 1.405 0 0.778 0.631 1.409 1.407 1.409h6.153c0.776 0 1.407-0.631 1.407-1.409C71.704 58.338 71.073 57.709 70.297 57.709z" fill="#000000" data-fill-palette-color="accent"></path><path d="M17.699 57.709c-0.777 0-1.406 0.629-1.406 1.405 0 0.778 0.629 1.409 1.406 1.409h42.224c0.776 0 1.407-0.631 1.407-1.409 0-0.776-0.631-1.405-1.407-1.405H17.699z" fill="#000000" data-fill-palette-color="accent"></path><path d="M9.879 60.523h3.967c0.777 0 1.407-0.631 1.407-1.409 0-0.776-0.63-1.405-1.407-1.405H9.879c-0.777 0-1.406 0.629-1.406 1.405C8.473 59.893 9.102 60.523 9.879 60.523z" fill="#000000" data-fill-palette-color="accent"></path><path d="M89.97 52.196H74.728c-0.776 0-1.407 0.63-1.407 1.406 0 0.777 0.631 1.407 1.407 1.407H89.97c0.776 0 1.407-0.63 1.407-1.407C91.377 52.826 90.746 52.196 89.97 52.196z" fill="#000000" data-fill-palette-color="accent"></path><path d="M70.297 46.685h-4.759c-0.776 0-1.407 0.629-1.407 1.405 0 0.778 0.631 1.407 1.407 1.407h3.352v3.847c0 0.778 0.631 1.407 1.407 1.407s1.407-0.629 1.407-1.407V48.09C71.704 47.313 71.073 46.685 70.297 46.685z" fill="#000000" data-fill-palette-color="accent"></path><path d="M66.863 53.603c0-0.776-0.631-1.406-1.407-1.406H20.04c-0.777 0-1.407 0.63-1.407 1.406 0 0.777 0.63 1.407 1.407 1.407h45.416C66.232 55.01 66.863 54.38 66.863 53.603z" fill="#000000" data-fill-palette-color="accent"></path><path d="M9.879 55.01h6.02c0.776 0 1.406-0.63 1.406-1.407 0-0.776-0.63-1.406-1.406-1.406h-6.02c-0.777 0-1.406 0.63-1.406 1.406C8.473 54.38 9.102 55.01 9.879 55.01z" fill="#000000" data-fill-palette-color="accent"></path><path d="M89.97 46.685H74.728c-0.776 0-1.407 0.629-1.407 1.405 0 0.778 0.631 1.407 1.407 1.407H89.97c0.776 0 1.407-0.629 1.407-1.407C91.377 47.313 90.746 46.685 89.97 46.685z" fill="#000000" data-fill-palette-color="accent"></path><path d="M9.879 49.497h51.639c0.776 0 1.407-0.629 1.407-1.407 0-0.776-0.631-1.405-1.407-1.405H9.879c-0.777 0-1.406 0.629-1.406 1.405C8.473 48.868 9.102 49.497 9.879 49.497z" fill="#000000" data-fill-palette-color="accent"></path><path d="M89.97 41.172H74.728c-0.776 0-1.407 0.63-1.407 1.406 0 0.777 0.631 1.407 1.407 1.407H89.97c0.776 0 1.407-0.63 1.407-1.407C91.377 41.802 90.746 41.172 89.97 41.172z" fill="#000000" data-fill-palette-color="accent"></path><path d="M70.297 41.172h-9.518c-0.776 0-1.407 0.63-1.407 1.406 0 0.777 0.631 1.407 1.407 1.407h9.518c0.776 0 1.407-0.63 1.407-1.407C71.704 41.802 71.073 41.172 70.297 41.172z" fill="#000000" data-fill-palette-color="accent"></path><path d="M43.385 43.985h12.964c0.776 0 1.407-0.63 1.407-1.407 0-0.776-0.631-1.406-1.407-1.406H43.385c-0.776 0-1.407 0.63-1.407 1.406C41.978 43.355 42.608 43.985 43.385 43.985z" fill="#000000" data-fill-palette-color="accent"></path><path d="M23.773 43.985h15.181c0.776 0 1.407-0.63 1.407-1.407 0-0.776-0.631-1.406-1.407-1.406H23.773c-0.776 0-1.406 0.63-1.406 1.406C22.367 43.355 22.997 43.985 23.773 43.985z" fill="#000000" data-fill-palette-color="accent"></path><path d="M9.879 43.985h9.957c0.777 0 1.406-0.63 1.406-1.407 0-0.776-0.629-1.406-1.406-1.406H9.879c-0.777 0-1.406 0.63-1.406 1.406C8.473 43.355 9.102 43.985 9.879 43.985z" fill="#000000" data-fill-palette-color="accent"></path></g></svg></g></svg></g></svg></g><defs></defs></svg><rect width="395.52" height="68.02744188549703" fill="none" stroke="none" visibility="hidden"></rect></g></svg></g></svg>